<svg width="50" height="50" viewBox="0 0 50 50" fill="none" xmlns="http://www.w3.org/2000/svg">
<path fill-rule="evenodd" clip-rule="evenodd" d="M24.8772 0.246094C22.3972 0.246094 19.9178 1.1922 18.0267 3.08332L2.83724 18.2728C-0.945542 22.0561 -0.945542 28.1894 2.83724 31.9728L18.0267 47.1628C19.9072 49.0433 22.3695 49.9894 24.8345 50H24.9195C27.3845 49.9894 29.8461 49.0433 31.7272 47.1628L46.9167 31.9728C48.7978 30.0917 49.7433 27.6294 49.7539 25.1639V25.0816C49.7433 22.6161 48.7978 20.1539 46.9167 18.2728L31.7272 3.08332C29.8356 1.1922 27.3567 0.246094 24.8772 0.246094Z" fill="#D7D7D7"/>
<path fill-rule="evenodd" clip-rule="evenodd" d="M26.3358 19.2324V30.3824H23.0958V24.2596L18.9241 30.3824H15.673V19.2324H18.9202V25.4008L23.1136 19.2324H26.3358Z" fill="white"/>
<path fill-rule="evenodd" clip-rule="evenodd" d="M26.791 19.2324H33.2399C34.3154 19.2324 35.1404 19.4985 35.7154 20.0308C36.2916 20.5635 36.5788 21.2224 36.5788 22.0085C36.5788 22.6674 36.3743 23.233 35.9632 23.7046C35.6899 24.0191 35.2888 24.2674 34.7616 24.4496C35.5621 24.6424 36.1521 24.9735 36.5293 25.4424C36.9077 25.9113 37.0966 26.5008 37.0966 27.2108C37.0966 27.7885 36.9621 28.3085 36.6932 28.7702C36.4249 29.2313 36.0571 29.5963 35.591 29.8652C35.301 30.0324 34.8649 30.1541 34.2821 30.2302C33.5071 30.3319 32.9916 30.3824 32.7382 30.3824H26.791V19.2324ZM30.2666 23.6058H31.7643C32.3027 23.6058 32.6766 23.513 32.8871 23.328C33.0977 23.143 33.2027 22.8758 33.2027 22.5258C33.2027 22.2013 33.0977 21.9474 32.8871 21.7652C32.6766 21.5824 32.3099 21.4913 31.7871 21.4913H30.2666V23.6058ZM30.2666 27.9863H32.0238C32.6166 27.9863 33.0349 27.8813 33.2788 27.6708C33.5216 27.4602 33.6438 27.178 33.6438 26.823C33.6438 26.4935 33.5227 26.2285 33.2827 26.028C33.0416 25.828 32.6188 25.7274 32.0154 25.7274H30.2666V27.9863Z" fill="white"/>
<path fill-rule="evenodd" clip-rule="evenodd" d="M44.9225 25.8187L47.9425 26.7314C47.7392 27.5781 47.4197 28.2853 46.9836 28.8531C46.5481 29.4214 46.0064 29.8498 45.3597 30.1387C44.7136 30.4275 43.8914 30.572 42.8925 30.572C41.6797 30.572 40.6897 30.3959 39.9219 30.0437C39.1536 29.6925 38.4908 29.0725 37.9331 28.1853C37.3753 27.2992 37.0964 26.1637 37.0964 24.7803C37.0964 22.9359 37.5869 21.5187 38.5681 20.5275C39.5492 19.5375 40.9369 19.042 42.7325 19.042C44.1364 19.042 45.2408 19.3259 46.0447 19.8937C46.8486 20.4614 47.4453 21.3337 47.8353 22.5103L44.7936 23.187C44.6869 22.8475 44.5753 22.5992 44.4586 22.442C44.2658 22.1781 44.0308 21.9753 43.7519 21.8331C43.4731 21.6914 43.1603 21.6203 42.8158 21.6203C42.0353 21.6203 41.4369 21.9348 41.0214 22.562C40.7064 23.0287 40.5492 23.7598 40.5492 24.7575C40.5492 25.9937 40.7375 26.8403 41.1125 27.2992C41.4875 27.757 42.0153 27.9864 42.6942 27.9864C43.3536 27.9864 43.8514 27.8014 44.1892 27.4309C44.5258 27.0609 44.7708 26.5237 44.9225 25.8187Z" fill="white"/>
</svg>
