<svg width="90" height="90" viewBox="0 0 90 90" fill="none" xmlns="http://www.w3.org/2000/svg">
<path fill-rule="evenodd" clip-rule="evenodd" d="M45.0004 0C40.5143 0 36.0292 1.71142 32.6083 5.13226L5.13203 32.6085C-1.71068 39.4522 -1.71068 50.5468 5.13203 57.3905L32.6083 84.8677C36.0101 88.2695 40.464 89.9809 44.923 90H45.0768C49.5357 89.9809 53.9886 88.2695 57.3914 84.8677L84.8677 57.3905C88.2705 53.9877 89.9809 49.5338 90 45.0739V44.9251C89.9809 40.4652 88.2705 36.0113 84.8677 32.6085L57.3914 5.13226C53.9696 1.71142 49.4855 0 45.0004 0Z" fill="url(#paint0_linear)"/>
<path fill-rule="evenodd" clip-rule="evenodd" d="M47 35V55H41.2266V44.0174L33.7932 55H28V35H33.7862V46.0643L41.2583 35H47Z" fill="white"/>
<path fill-rule="evenodd" clip-rule="evenodd" d="M48 35H59.8896C61.8726 35 63.3936 35.4773 64.4537 36.432C65.5159 37.3876 66.0454 38.5695 66.0454 39.9796C66.0454 41.1614 65.6685 42.1759 64.9105 43.0219C64.4066 43.5859 63.6671 44.0314 62.695 44.3582C64.171 44.704 65.2588 45.298 65.9542 46.139C66.6518 46.9801 67 48.0374 67 49.3109C67 50.3473 66.7521 51.28 66.2564 52.1081C65.7617 52.9352 65.0836 53.5899 64.2243 54.0722C63.6896 54.3722 62.8856 54.5904 61.8111 54.727C60.3823 54.9093 59.4318 55 58.9647 55H48V35ZM54.4078 42.8445H57.1692C58.1617 42.8445 58.851 42.6781 59.2392 42.3463C59.6274 42.0144 59.821 41.5351 59.821 40.9073C59.821 40.3254 59.6274 39.87 59.2392 39.5431C58.851 39.2152 58.175 39.0518 57.2112 39.0518H54.4078V42.8445ZM54.4078 50.702H57.6475C58.7404 50.702 59.5116 50.5137 59.9613 50.136C60.4089 49.7583 60.6342 49.2521 60.6342 48.6153C60.6342 48.0244 60.4109 47.5491 59.9685 47.1893C59.5239 46.8306 58.7445 46.6502 57.6321 46.6502H54.4078V50.702Z" fill="white"/>
<path fill-rule="evenodd" clip-rule="evenodd" d="M81.4312 46.3426L87 48.0051C86.6251 49.5471 86.036 50.8352 85.2318 51.8693C84.4287 52.9045 83.4299 53.6846 82.2374 54.2108C81.046 54.7369 79.5298 55 77.6879 55C75.4516 55 73.626 54.6792 72.2103 54.0377C70.7935 53.3982 69.5713 52.269 68.5428 50.6531C67.5143 49.0392 67 46.9709 67 44.4514C67 41.0921 67.9046 38.5108 69.7137 36.7057C71.5229 34.9026 74.0819 34 77.3929 34C79.9816 34 82.0182 34.5171 83.5005 35.5512C84.9829 36.5853 86.0831 38.1739 86.8023 40.317L81.1935 41.5494C80.9968 40.9312 80.7909 40.4789 80.5758 40.1925C80.2203 39.7119 79.787 39.3426 79.2727 39.0835C78.7584 38.8255 78.1817 38.696 77.5465 38.696C76.1072 38.696 75.0039 39.2687 74.2376 40.4111C73.6568 41.2611 73.3668 42.5927 73.3668 44.4099C73.3668 46.6613 73.7141 48.2034 74.4056 49.0392C75.0971 49.8729 76.0703 50.2908 77.3222 50.2908C78.5382 50.2908 79.4561 49.9539 80.0789 49.279C80.6997 48.6051 81.1515 47.6266 81.4312 46.3426Z" fill="white"/>
<defs>
<linearGradient id="paint0_linear" x1="-0.000251237" y1="90" x2="90.0003" y2="90" gradientUnits="userSpaceOnUse">
<stop stop-color="#E43136"/>
<stop offset="1" stop-color="#C11717"/>
</linearGradient>
</defs>
</svg>
